<svg version="1.0" xmlns="http://www.w3.org/2000/svg" width="682.667" height="682.667" viewBox="0 0 512 512"><path d="M104.5 2.5c-6.8 3.3-8.1 4.5-10.4 9.6-1.4 3.1-1.7 4.7-.9 5.6.6.7.7 1.3.3 1.3-.4 0-.2.6.4 1.3.6.8.9 1.6.6 1.9-.3.3 10.1 11.2 23 24.2C130.4 59.5 141 70.8 141 71.6c0 .8.4 1.4.8 1.4s.8.8.9 1.7c.3 3.3 1.2 7.3 1.9 8.4.5.8.3.9-.5.4-1-.5-1.1-.3-.4 1.1 1.6 3.3 0 17.4-2 17.4-.6 0-.8.3-.4.6.3.4 0 1.9-.9 3.5-.8 1.6-1.2 2.9-.9 2.9.4 0-.1.7-.9 1.6-.9.8-1.6 2.2-1.6 3 0 .8-.5 1.4-1.2 1.4-.6 0-.9.3-.5.6 1.2 1.2-15.5 18.4-18 18.4-.8 0-1.2.4-.9.8.3.5-1 1.5-2.9 2.2-1.9.8-3.5 1.7-3.5 2.2 0 .4-.3.7-.7.6-.5 0-1.5.2-2.3.5-4.8 1.9-10.7 3.4-12.2 3.2-1-.2-1.8-.1-1.8.3s-2.2.7-5 .7c-2.7 0-5-.4-5-.8 0-.5-.4-.6-.9-.3-.5.4-3.2.1-6.1-.6-4.9-1.1-6.3-2.4-27.7-23.5C35.9 107 24.5 96.1 23.1 95.2c-6.2-4.2-14-1.9-18.6 5.4-3.6 5.6-3.7 6.1-4 15.7-.3 9 1.6 21 4.9 31.7 2.4 7.6 9.5 23.2 10.9 23.8.4.2.7 1 .7 1.7 0 .8 1 2.5 2.2 3.9 1.3 1.4 3.4 4.2 4.8 6.2 2.7 3.9 16 18 16 16.9 0-.3 1 .5 2.2 1.8 3.1 3.1 13.8 10 21.8 13.8 3.6 1.7 7.3 3.6 8.2 4 1 .5 2.6.9 3.6.9s2.2.4 2.7.9c.6.6 2.1 1.2 3.5 1.5 1.4.3 3.9.9 5.5 1.4 1.7.5 3.6.7 4.3.5.6-.3 1.2-.1 1.2.4 0 .8 4 1.2 15.2 1.6 3.2.1 5.8.6 5.8 1 0 .5.5.5 1.2.1.6-.4 3.7-.9 6.7-1 3.1-.1 7.6-.7 10.1-1.2s5.3-1 6.3-.9c1 0 33.7 31.9 75.3 73.5l73.5 73.5-.5 3.6c-.3 2-.8 4.7-1.1 6.1-1.1 4.2-1.2 28.3-.2 31.9.5 1.9 1 4.6 1.1 6 1.3 12.8 13 37.7 23.9 50.8 2.8 3.4 13.7 14.4 13.7 13.8 0-.2 1.2.7 2.6 2 4.9 4.6 17.8 12.6 20.7 12.9.4.1 1.1.6 1.5 1.1.4.6 3.2 1.9 6.2 2.9s6 2.2 6.5 2.7c.6.4 2.4 1 4 1.3 1.7.3 6.2 1.3 10 2.2 8.8 2.1 30.6 2.5 31.2.6.3-.6 1.1-1.2 1.9-1.2.8 0 2.3-.9 3.4-2s2-1.7 2-1.4c0 .4 1-.6 2.2-2.1 2.6-3.3 3.2-9.8 1.3-13.5-.7-1.4-11.5-12.9-23.9-25.4-12.4-12.6-22.6-23.4-22.6-24 0-.7-.4-1.6-.9-2.1-.5-.6-1.1-2.4-1.2-4-.2-1.7-.7-3.6-1.2-4.3-.6-.8-.5-1.2.2-1.2.8 0 .9-.6.3-1.8-1.1-2.4-.6-9.4 1.2-15.7.2-.6.6-2.2 1.1-3.7.4-1.6 1.1-2.8 1.7-2.8.5 0 .7-.4.4-.9-.3-.5 1.7-4.2 4.5-8.4 4.4-6.6 7.9-10.4 15.9-17 2.8-2.4 15.9-9 18.5-9.4 1.1-.2 3.1-.5 4.5-.7 1.4-.2 2.5-.5 2.5-.6 0-.7 7.2-.4 8.3.3.8.6 1.2.5 1.2-.2s.5-.9 1.1-.6c.5.4 2.5.9 4.2 1.1 1.8.3 4.4 1 5.9 1.6 1.5.5 13.4 11.5 26.3 24.4 21.7 21.3 24 23.4 27.8 23.9 2.3.4 5.3.2 6.7-.3 3.3-1.4 8-5.9 8-7.7 0-.8.4-1.5.9-1.5 2.7 0 3.7-18.7 1.6-29.5-6.8-35.2-26.1-63.1-55-79.5-8.8-5-17.2-8.9-17.9-8.3-.3.4-.6 0-.6-.7s-.2-1.1-.6-.8c-.3.3-2.6-.1-5.2-.9s-5.6-1.7-6.7-1.8c-1.1-.2-2.2-.4-2.5-.6-.6-.2-.9-.3-7.5-1.4-2.7-.4-6.3-.9-8-.9-1.6-.1-3.5-.4-4-.8-.6-.4-1.7-.3-2.5.2-.9.5-2 .4-2.9-.3-.8-.7-1.2-.7-.9-.2.4.6-1.5 1.1-5 1.2-3.2.1-7 .4-8.7.8-1.6.3-4.6.8-6.6 1.1l-3.6.5-73.8-73.8-73.7-73.7.6-3.6c.3-1.9.9-4.9 1.2-6.5.3-1.7.7-5.1.8-7.6.2-2.5.6-5.1 1-5.7.4-.7.3-1.2-.1-1.2-.5 0-.8-2.6-.8-5.8.1-10.9-3-25.2-8.3-38.2-8.4-20.9-21.7-37.4-41.7-51.7-5.9-4.2-26.1-13.5-32-14.8-.5-.1-2.8-.7-5-1.3-6.3-1.7-10.3-2.2-21-2.7-9.1-.4-10.5-.2-15 2z"/></svg>